HIERARCHY
ROOT Hips
{
	OFFSET 0.000000 0.000000 0.000000
	CHANNELS 6 Xposition Yposition Zposition Xrotation Yrotation Zrotation
	JOINT LeftUpLeg_virtual
	{
		OFFSET 0.000000 0.000000 0.000000
		CHANNELS 3 Xrotation Yrotation Zrotation
		JOINT LeftUpLeg
		{
			OFFSET 11.394100 -6.187798 -0.413800
			CHANNELS 3 Xrotation Yrotation Zrotation
			JOINT LeftLeg
			{
				OFFSET 0.430247 -32.302673 3.732800
				CHANNELS 3 Xrotation Yrotation Zrotation
				JOINT LeftFoot
				{
					OFFSET -0.430247 -48.264931 -6.423300
					CHANNELS 3 Xrotation Yrotation Zrotation
					JOINT LeftToeBase
					{
						OFFSET 4.230900 -16.068199 23.438400
						CHANNELS 3 Xrotation Yrotation Zrotation
						JOINT LeftToe_End
						{
							OFFSET 4.510700 0.695400 19.974600
							CHANNELS 3 Xrotation Yrotation Zrotation
							End Site
							{
								OFFSET 0 0 0
							}
						}
					}
				}
			}
		}
	}
	JOINT RightUpLeg_virtual
	{
		OFFSET 0.000000 0.000000 0.000000
		CHANNELS 3 Xrotation Yrotation Zrotation
		JOINT RightUpLeg
		{
			OFFSET -11.333700 -6.187798 -0.413800
			CHANNELS 3 Xrotation Yrotation Zrotation
			JOINT RightLeg
			{
				OFFSET -0.430392 -32.302628 3.733000
				CHANNELS 3 Xrotation Yrotation Zrotation
				JOINT RightFoot
				{
					OFFSET 0.430392 -48.264973 -6.423500
					CHANNELS 3 Xrotation Yrotation Zrotation
					JOINT RightToeBase
					{
						OFFSET -4.230900 -16.068199 23.438400
						CHANNELS 3 Xrotation Yrotation Zrotation
						JOINT RightToe_End
						{
							OFFSET -4.510700 0.695400 19.974600
							CHANNELS 3 Xrotation Yrotation Zrotation
							End Site
							{
								OFFSET 0 0 0
							}
						}
					}
				}
			}
		}
	}
	JOINT Spine_virtual
	{
		OFFSET 0.000000 0.000000 0.000000
		CHANNELS 3 Xrotation Yrotation Zrotation
		JOINT Spine
		{
			OFFSET -0.002400 12.777504 0.315300
			CHANNELS 3 Xrotation Yrotation Zrotation
			JOINT Spine1
			{
				OFFSET -0.002067 5.816869 0.032633
				CHANNELS 3 Xrotation Yrotation Zrotation
				JOINT Spine1_split
				{
					OFFSET -0.002067 5.816869 0.032633
					CHANNELS 3 Xrotation Yrotation Zrotation
					JOINT Spine2
					{
						OFFSET -0.002067 5.816869 0.032633
						CHANNELS 3 Xrotation Yrotation Zrotation
						JOINT Neck_virtual
						{
							OFFSET 0.000000 0.000000 0.000000
							CHANNELS 3 Xrotation Yrotation Zrotation
							JOINT Neck
							{
								OFFSET -0.003700 21.199493 -0.826900
								CHANNELS 3 Xrotation Yrotation Zrotation
								JOINT Head
								{
									OFFSET 0.000000 20.442200 4.834800
									CHANNELS 3 Xrotation Yrotation Zrotation
									JOINT HeadTop_End
									{
										OFFSET 0.000000 34.668396 4.968400
										CHANNELS 3 Xrotation Yrotation Zrotation
										End Site
										{
											OFFSET 0 0 0
										}
									}
								}
							}
						}
						JOINT LeftShoulder_virtual
						{
							OFFSET 0.000000 0.000000 0.000000
							CHANNELS 3 Xrotation Yrotation Zrotation
							JOINT LeftShoulder
							{
								OFFSET 3.288150 8.794197 -1.372250
								CHANNELS 3 Xrotation Yrotation Zrotation
								JOINT LeftShoulder_split
								{
									OFFSET 3.288150 8.794197 -1.372250
									CHANNELS 3 Xrotation Yrotation Zrotation
									JOINT LeftArm
									{
										OFFSET 11.953299 -2.279007 -0.146200
										CHANNELS 3 Xrotation Yrotation Zrotation
										JOINT LeftForeArm
										{
											OFFSET 18.448900 0.000000 0.000000
											CHANNELS 3 Xrotation Yrotation Zrotation
											JOINT LeftHand
											{
												OFFSET 29.527798 0.000000 0.000000
												CHANNELS 3 Xrotation Yrotation Zrotation
												End Site
												{
													OFFSET 0 0 0
												}
											}
										}
									}
								}
							}
						}
						JOINT RightShoulder_virtual
						{
							OFFSET 0.000000 0.000000 0.000000
							CHANNELS 3 Xrotation Yrotation Zrotation
							JOINT RightShoulder
							{
								OFFSET -3.249400 8.794197 -1.372250
								CHANNELS 3 Xrotation Yrotation Zrotation
								JOINT RightShoulder_split
								{
									OFFSET -3.249400 8.794197 -1.372250
									CHANNELS 3 Xrotation Yrotation Zrotation
									JOINT RightArm
									{
										OFFSET -11.953299 -2.279007 -0.146200
										CHANNELS 3 Xrotation Yrotation Zrotation
										JOINT RightForeArm
										{
											OFFSET -18.448900 0.000000 0.000000
											CHANNELS 3 Xrotation Yrotation Zrotation
											JOINT RightHand
											{
												OFFSET -29.527802 0.000000 0.000000
												CHANNELS 3 Xrotation Yrotation Zrotation
												End Site
												{
													OFFSET 0 0 0
												}
											}
										}
									}
								}
							}
						}
					}
				}
			}
		}
	}
}
MOTION
Frames: 8
Frame Time: 0.03333333
-1.512572 101.574043 -10.434872 0.000000 0.000000 0.000000 1.499008 -24.630589 0.383345 -24.177816 31.042066 18.375147 21.659563 6.474542 1.293917 -2.577845 5.584313 -15.433629 3.276710 -4.386266 -0.459497 0.000000 0.000000 0.000000 2.580051 -22.543056 0.492696 -15.905912 2.875072 -4.825246 12.387536 8.283612 -1.510963 -2.916814 -5.139692 16.355731 2.745214 3.775735 -17.358461 0.000000 0.000000 0.000000 -0.013338 -17.782034 -0.438239 3.199277 -0.879428 -0.892563 2.758450 -3.119205 2.280889 0.062796 -0.304367 0.112733 0.000000 0.000000 0.000000 5.272416 0.044987 3.332041 -10.243064 26.381659 -2.963276 -20.304283 22.283854 -6.221890 0.000000 0.000000 0.000000 3.776633 -1.526974 2.648422 2.110379 -6.943252 -1.351121 7.458199 -1.770135 1.433971 -67.891472 -2.078931 -39.489705 7.019674 -58.668511 10.305494 0.000000 0.000000 0.000000 4.203368 -1.723829 2.986099 -2.684020 0.605847 2.721711 -2.169252 -5.586188 0.853953 -8.525224 -2.671780 69.912170 10.131368 16.231487 -1.529526 0.000000 0.000000 0.000000 
-1.404006 101.509460 -10.412521 0.000000 0.000000 0.000000 1.449772 -24.928661 0.499849 -24.386398 31.283912 18.323712 21.658234 6.822581 1.368846 -2.694297 5.477473 -15.211509 3.696116 -4.407924 -0.420541 0.000000 0.000000 0.000000 2.717931 -22.836676 0.633716 -16.128626 2.636280 -4.872820 12.735697 8.133932 -1.468009 -2.882425 -4.890739 16.407752 2.258553 3.836046 -16.986371 0.000000 0.000000 0.000000 -0.037473 -18.119305 -0.377299 3.167217 -0.852987 -0.986950 2.610748 -3.074222 2.256373 0.065196 -0.241707 0.077344 0.000000 0.000000 0.000000 5.341274 0.111076 3.282901 -9.911698 26.448355 -3.046587 -20.739630 22.234284 -6.213855 0.000000 0.000000 0.000000 3.774201 -1.474866 2.667758 2.055024 -6.438491 -1.404316 7.017801 -1.888337 1.405886 -67.925166 -1.245339 -38.715913 6.672406 -58.168036 9.920754 0.000000 0.000000 0.000000 4.095025 -1.724187 2.954584 -2.727504 0.675399 2.904436 -1.745590 -5.508716 0.713907 -8.375233 -2.581053 69.524455 10.318315 16.344149 -1.552866 0.000000 0.000000 0.000000 
-1.135504 101.388115 -10.325195 0.000000 0.000000 0.000000 1.527642 -24.881537 0.622515 -24.764651 31.349312 18.249226 21.774380 7.287625 1.330385 -2.801177 5.154664 -14.579580 4.600297 -4.395216 -0.519648 0.000000 0.000000 0.000000 2.822126 -22.971912 0.782981 -16.150440 2.319623 -5.023188 13.442884 7.764955 -1.402042 -3.365112 -4.629971 16.288189 2.144241 3.954438 -16.181987 0.000000 0.000000 0.000000 0.045743 -18.214356 -0.315259 3.018775 -0.793380 -1.121390 2.453450 -2.859976 2.206108 0.065745 -0.218948 0.038632 0.000000 0.000000 0.000000 5.389628 0.340106 3.187151 -9.289716 26.399736 -3.236880 -21.528116 21.850304 -6.279494 0.000000 0.000000 0.000000 3.758127 -1.258641 2.623850 2.020871 -5.776503 -1.353519 6.686329 -2.323074 1.423219 -67.916894 0.335805 -37.434061 7.151253 -57.935563 10.191057 0.000000 0.000000 0.000000 4.030723 -1.564236 2.860793 -2.742942 0.939667 3.355273 -1.432882 -5.333571 0.548428 -7.927640 -2.429022 68.790448 10.609212 16.851846 -1.505720 0.000000 0.000000 0.000000 
-0.724929 101.219894 -10.212620 0.000000 0.000000 0.000000 1.738191 -24.439655 0.761084 -25.255876 31.229797 18.170002 22.004375 7.809079 1.165648 -2.805117 4.586333 -13.648127 5.475058 -4.349676 -0.640390 0.000000 0.000000 0.000000 2.913124 -22.990429 0.923197 -16.012991 1.997752 -5.307228 14.081803 7.287745 -1.327113 -4.346416 -4.331824 16.227809 2.685365 4.129330 -15.416499 0.000000 0.000000 0.000000 0.252711 -17.999282 -0.225009 2.764664 -0.715589 -1.246803 2.314041 -2.485866 2.129292 0.056546 -0.236957 0.029788 0.000000 0.000000 0.000000 5.408443 0.712126 3.061149 -8.468904 26.213440 -3.500337 -22.620540 21.007727 -6.453510 0.000000 0.000000 0.000000 3.757388 -0.880355 2.516865 2.011307 -4.932506 -1.205196 6.550918 -2.979621 1.509267 -67.808096 2.519151 -35.801089 8.355870 -57.961136 10.996652 0.000000 0.000000 0.000000 4.038528 -1.241226 2.712784 -2.714226 1.354104 4.016029 -1.260358 -5.125467 0.444860 -7.162281 -2.368100 67.802263 10.937509 17.620160 -1.367621 0.000000 0.000000 0.000000 
-0.235791 101.051430 -10.081734 0.000000 0.000000 0.000000 2.086968 -23.608752 0.918679 -25.778548 30.959291 17.997166 22.276700 8.475269 0.892166 -2.864456 3.859656 -12.235278 6.086467 -4.279506 -0.807361 0.000000 0.000000 0.000000 3.095373 -22.729867 1.062347 -15.779796 1.644895 -5.793186 14.486604 6.911489 -1.262490 -5.419329 -3.876786 16.851776 3.398767 4.457672 -15.228426 0.000000 0.000000 0.000000 0.628601 -17.471655 -0.053763 2.417929 -0.649879 -1.327332 2.202997 -1.974742 2.029814 0.049663 -0.257344 0.034684 0.000000 0.000000 0.000000 5.408956 1.209661 2.910927 -7.571743 25.861915 -3.812590 -23.863597 19.724854 -6.766778 0.000000 0.000000 0.000000 3.794068 -0.350220 2.369383 2.037381 -3.857625 -0.978359 6.754088 -3.789443 1.740235 -67.560461 5.103039 -33.959690 10.118092 -58.264191 12.155373 0.000000 0.000000 0.000000 4.133475 -0.772068 2.522891 -2.639701 1.877603 4.818445 -1.221032 -4.873979 0.525009 -6.169539 -2.625664 66.662967 11.223877 18.511807 -1.126909 0.000000 0.000000 0.000000 
0.283923 100.843719 -9.908417 0.000000 0.000000 0.000000 2.517831 -22.378765 1.082973 -26.330992 30.579939 17.725362 22.597193 9.259858 0.517991 -3.102520 3.041167 -10.381195 6.593871 -4.178029 -1.168301 0.000000 0.000000 0.000000 3.318746 -21.846895 1.165090 -15.523743 1.243536 -6.464581 14.753676 6.742726 -1.219588 -6.162610 -3.304118 18.352561 3.820683 4.976268 -15.952831 0.000000 0.000000 0.000000 1.057886 -16.588231 0.196666 2.051877 -0.616689 -1.337925 2.111696 -1.353096 1.911063 0.067265 -0.229699 0.043077 0.000000 0.000000 0.000000 5.407401 1.803900 2.742536 -6.731243 25.366141 -4.130825 -25.128544 18.143793 -7.245216 0.000000 0.000000 0.000000 3.886746 0.300184 2.199523 2.097094 -2.515733 -0.675784 7.150088 -4.724969 1.997400 -67.247317 7.862712 -32.059293 12.177239 -58.891797 13.444328 0.000000 0.000000 0.000000 4.319063 -0.184899 2.297515 -2.531986 2.501720 5.663271 -1.344624 -4.608834 0.755744 -5.023983 -3.400297 65.450356 11.406950 19.353621 -0.797483 0.000000 0.000000 0.000000 
0.809770 100.550133 -9.718830 0.000000 0.000000 0.000000 2.911614 -20.908196 1.252771 -26.949457 30.158782 17.416467 23.045902 10.057311 0.068083 -3.459263 2.115847 -8.394096 7.090659 -4.020596 -1.716429 0.000000 0.000000 0.000000 3.536784 -20.259207 1.244003 -15.377418 0.716105 -7.242752 15.360354 6.676831 -1.210502 -6.653572 -2.899878 20.111308 4.009025 5.615931 -17.477250 0.000000 0.000000 0.000000 1.423023 -15.320277 0.461689 1.732249 -0.599225 -1.270102 2.037249 -0.643211 1.777153 0.095387 -0.172028 0.058250 0.000000 0.000000 0.000000 5.434797 2.457582 2.559300 -6.017198 24.755568 -4.455205 -26.294131 16.432614 -7.923334 0.000000 0.000000 0.000000 4.008380 1.028940 2.014450 2.189392 -0.934628 -0.314046 7.677830 -5.707125 2.317675 -67.006007 10.624324 -30.081246 14.416625 -59.919446 14.760370 0.000000 0.000000 0.000000 4.539373 0.472972 2.044490 -2.414431 3.234545 6.480941 -1.640627 -4.345674 1.006710 -3.847983 -4.687293 64.303185 11.461022 19.996859 -0.432558 0.000000 0.000000 0.000000 
1.361170 100.063461 -9.515945 0.000000 0.000000 0.000000 3.243561 -19.220830 1.465586 -27.662799 29.835468 17.069847 23.717147 10.739285 -0.461943 -3.876188 1.114802 -6.491763 7.420709 -3.794205 -2.257530 0.000000 0.000000 0.000000 3.647203 -18.195880 1.358254 -15.713149 0.040995 -8.054453 16.889974 6.498711 -1.220903 -7.017015 -2.907484 21.333461 3.820532 6.258228 -19.381497 0.000000 0.000000 0.000000 1.634280 -13.665885 0.741613 1.522835 -0.580880 -1.148336 1.978884 0.111186 1.623551 0.099087 -0.105724 0.064809 0.000000 0.000000 0.000000 5.500766 3.123488 2.365422 -5.495098 24.032808 -4.768746 -27.206805 14.707959 -8.831417 0.000000 0.000000 0.000000 4.119342 1.781229 1.826901 2.297630 0.818619 0.077235 8.280506 -6.856756 2.636675 -66.943531 13.257515 -27.977162 16.793501 -61.458780 16.097352 0.000000 0.000000 0.000000 4.742665 1.148532 1.780823 -2.311940 4.015934 7.202694 -2.043556 -3.995180 1.198535 -2.759243 -6.284094 63.264053 11.398694 20.384397 -0.106904 0.000000 0.000000 0.000000 
